<?xml version="1.0" encoding="UTF-8"?>
<svg id="Calque_1" data-name="Calque 1" xmlns="http://www.w3.org/2000/svg" viewBox="0 0 462.46 412.25">
  <defs>
    <style>
      .cls-1 {
        fill: #951415;
      }

      .cls-2 {
        fill: none;
      }

      .cls-3 {
        fill: #9a1516;
      }

      .cls-4 {
        fill: #961315;
      }

      .cls-5 {
        fill: #d42a2c;
      }

      .cls-6 {
        fill: #e23234;
      }

      .cls-7 {
        fill: #971415;
      }

      .cls-8 {
        fill: #fefefe;
      }

      .cls-9 {
        fill: #df3131;
      }

      .cls-10 {
        fill: #de2f30;
      }
    </style>
  </defs>
  <path class="cls-5" d="M194.52,172.65h.02v-.03s-.02.02-.02.03ZM194.52,172.65h.02v-.03s-.02.02-.02.03ZM194.52,172.65h.02v-.03s-.02.02-.02.03ZM194.52,172.65h.02v-.03s-.02.02-.02.03ZM251.24,131.5s.02.02.02.03c.05-.02.11-.02.16-.03-.05-.02-.11-.02-.18,0ZM267.36,0c-13.95,28.02-27.89,56.03-41.84,84.04,8.64,15.81,17.27,31.64,25.89,47.47,27.47-.74,57.47,5.78,89.32,23.57L267.36,0ZM194.52,172.65h.02v-.03s-.02.02-.02.03ZM194.52,172.65h.02v-.03s-.02.02-.02.03ZM194.52,172.65h.02v-.03s-.02.02-.02.03ZM194.52,172.65h.02v-.03s-.02.02-.02.03ZM194.52,172.65h.02v-.03s-.02.02-.02.03ZM355.01,185.22c-5.17,8-41.07,61.84-101.24,73.92-32.8,6.58-63.3-.64-63.3-.64-15.53-3.68-29.07-9.9-32.51-11.52-9.22-4.34-16.83-8.94-21.56-11.87-.33-.2-.62-.38-.92-.56-6.42-3.96-11.72-7.63-15.68-10.49-8.28,5.01-17.56,11.34-27.19,19.28-9.28,7.64-17.01,15.26-23.37,22.21L0,412.25l95.35-33.95,45.78-16.25,27.65-84.4c7.76,1.75,16.35,3.31,25.7,4.44,11.11,1.34,21.38,1.85,30.58,1.88.82-.02,1.64-.02,2.46-.03.62,0,1.26-.02,1.9-.03h.59c1.15-.03,2.31-.07,3.49-.1,1.54-.05,3.08-.1,4.65-.16,1.39-.07,2.82-.13,4.24-.2,1.37-.08,2.78-.15,4.19-.25,1.65-.1,3.34-.21,5.04-.34,1.78-.15,3.55-.28,5.29-.44,1.36-.11,2.73-.25,4.12-.39,1.7-.16,3.4-.34,5.07-.54.16-.02.33-.03.49-.07.93-.1,1.87-.2,2.78-.33,4.11-.49,8.12-1.05,12-1.65,1.05-.16,2.1-.33,3.13-.49.23-.03.44-.07.67-.1.05-.02.11-.02.18-.03.16-.03.34-.05.51-.08.11-.02.25-.05.36-.07.93-.16,1.85-.31,2.78-.47,1.24-.21,2.49-.43,3.7-.65l27.29,84.76,142.49,49.96-107.44-227.03ZM194.54,172.62s-.02.02-.02.03h.02v-.03ZM194.52,172.65h.02v-.03s-.02.02-.02.03ZM194.52,172.65h.02v-.03s-.02.02-.02.03ZM194.52,172.65h.02v-.03s-.02.02-.02.03ZM194.52,172.65h.02v-.03s-.02.02-.02.03ZM194.52,172.65h.02v-.03s-.02.02-.02.03ZM194.52,172.65h.02v-.03s-.02.02-.02.03Z"/>
  <path class="cls-2" d="M194.54,172.62v.03h-.02s0-.03.02-.03Z"/>
  <path class="cls-2" d="M194.52,172.65h.02v-.03s-.02.02-.02.03Z"/>
  <path class="cls-2" d="M119.82,224.07c3.96,2.86,9.26,6.53,15.68,10.49-6.33-3.72-11.56-7.38-15.68-10.49Z"/>
  <path class="cls-2" d="M251.42,131.5s-.11.02-.16.03t-.02-.03c.07-.02.13-.02.18,0Z"/>
  <path class="cls-2" d="M75.52,251.71c-2.29,4.86-4.6,9.71-6.91,14.55.21-.23.43-.46.64-.7l6.89-14.6c-.21.25-.43.51-.62.75ZM194.52,172.65h.02v-.03s-.02.02-.02.03ZM194.52,172.65h.02v-.03s-.02.02-.02.03Z"/>
  <path class="cls-4" d="M363.98,204.52c32.83,69.24,65.66,138.48,98.48,207.72-47.5-16.65-95-33.3-142.5-49.95l-27.28-84.75c-12.56,2.31-26.39,4.21-41.35,5.33-9.19.69-17.97,1.03-26.3,1.09,14.21-1.16,31.81-4.18,50.91-11.4,47.43-17.92,75.49-50.93,88.03-68.05Z"/>
  <path class="cls-1" d="M141.12,362.05l27.64-84.39c-10.62,18.74-21.24,37.47-31.86,56.21-4.37,7.09-10.33,15.46-18.34,24.06-8.2,8.8-16.33,15.46-23.22,20.37,15.26-5.42,30.51-10.83,45.77-16.25Z"/>
  <path class="cls-2" d="M251.42,131.5s-.11.02-.16.03t-.02-.03c.07-.02.13-.02.18,0Z"/>
  <path class="cls-7" d="M341.43,156.06c-.07.02-.11.05-.18.07l-.51-1.05c-31.85-17.79-61.86-24.31-89.32-23.57-8.63-15.83-17.25-31.66-25.89-47.47,13.95-28.01,27.89-56.01,41.84-84.04,24.68,52.02,49.37,104.04,74.07,156.06Z"/>
  <path class="cls-3" d="M355.01,185.22c-5.17,8-41.07,61.84-101.24,73.92-32.8,6.58-63.3-.64-63.3-.64-15.53-3.68-29.07-9.9-32.51-11.52-9.22-4.34-16.83-8.94-21.56-11.87,10.79,6.24,24.63,12.59,41.36,16.73,14.13,3.49,44.93,10.69,80.29-1.41,44.19-15.14,66.1-50.35,72.2-61.04-6.63-5.12-16.47-11.75-29.43-17.25h-.02c-5.19-2.19-10.88-4.22-17.09-5.88-5.34-1.44-10.48-2.46-15.35-3.14h-.02c-2.14-.31-4.24-.56-6.27-.75,4.21,6.33,6.68,13.98,6.68,22.23,0,21.7-17.02,39.28-38.01,39.28s-36.85-16.38-37.96-37.04c2.16,4.75,6.94,8.04,12.49,8.04,7.58,0,13.73-6.15,13.73-13.73,0-6.47-4.47-11.88-10.49-13.34-1.03-.26-2.13-.39-3.24-.39-4.35,0-8.23,2.03-10.75,5.21-.02,0-.02.02-.02.03-7.71,3.13-14.16,6.45-19.61,9.3h-.02c-13.83,7.25-34.49,20.12-55.08,42.12-8.28,5.01-17.56,11.34-27.19,19.28-9.28,7.64-17.01,15.26-23.37,22.21l6.89-14.6.07-.15c4.7-6.07,26.93-33.54,61.38-57.94.47-.36.97-.7,1.46-1.05.47-.34.93-.67,1.41-1,.43-.31.85-.61,1.28-.88.51-.36,1.01-.7,1.52-1.05.33-.23.65-.44.98-.67,7.01-4.81,18.25-12.18,32.82-19.12,7.4-3.52,15.66-6.94,24.67-9.85,14.37-4.63,30.63-8,48.3-8.5,3.83-.1,7.73-.08,11.7.11,3.01.13,6.06.36,9.13.67,1.93.2,3.85.44,5.73.7,16.19,2.28,30.64,6.84,43.2,12.39,14.24,6.27,26.06,13.8,35.22,20.59Z"/>
  <path class="cls-10" d="M286.86,184.96c0,31.3-25.08,56.67-56.01,56.67s-56.01-25.37-56.01-56.67c0-1.01.03-2.01.07-3.01h.02c5.45-2.85,11.9-6.17,19.61-9.3-1.87,2.34-2.96,5.29-2.96,8.5,0,2.03.44,3.96,1.24,5.7,1.11,20.66,17.68,37.04,37.96,37.04s38.01-17.58,38.01-39.28c0-8.25-2.47-15.89-6.68-22.23,2.03.2,4.12.44,6.27.75h.02c4.88.69,10.02,1.7,15.35,3.14,1.29,3.7,2.19,7.58,2.7,11.59.28,2.32.43,4.7.43,7.1Z"/>
  <path class="cls-8" d="M330.26,189.4c-6.11,10.69-28.01,45.9-72.2,61.04-35.36,12.1-66.16,4.89-80.29,1.41-16.73-4.14-30.58-10.49-41.36-16.73-.33-.2-.62-.38-.92-.56-6.42-3.96-11.72-7.63-15.68-10.49,20.59-22,41.25-34.86,55.08-42.12-.03,1-.07,2-.07,3.01,0,31.3,25.08,56.67,56.01,56.67s56.01-25.37,56.01-56.67c0-2.41-.15-4.78-.43-7.1-.51-4.01-1.41-7.89-2.7-11.59,6.2,1.65,11.9,3.68,17.09,5.88h.02c12.96,5.5,22.8,12.13,29.43,17.25Z"/>
  <path class="cls-9" d="M267.36,0c-13.95,28.02-27.89,56.03-41.84,84.04-5.01,9.48-10.02,18.97-15.03,28.46,0,0-.26.51-.36.7-2.46,4.78-5.07,9.89-7.87,15.29-.39.77-.8,1.56-1.21,2.32-1.34,2.57-2.68,5.16-4.04,7.73-.69,1.31-1.39,2.65-2.1,3.99-.18.34-.34.69-.52,1.03,0,0-.13.05-.41.16-.65.26-1.31.52-1.95.79-.23.1-.47.2-.75.31-64.72,27.17-105.33,86.42-106.95,88.8L194.62,0h72.74Z"/>
  <path class="cls-2" d="M225.52,84.04c8.64,15.81,17.27,31.64,25.89,47.47-.05-.02-.11-.02-.18,0h-.21c-.46.02-.92.03-1.39.05-17.92.67-34.77,4.44-50.32,10.13-.02,0-.03.02-.05.02-.11.05-.28.11-.49.2-.39.15-.74.29-1.06.41-.16.07-.36.13-.59.23-1.08.41-1.88.7-2.73,1.03"/>
  <path class="cls-2" d="M225.52,84.04c-5.01,9.48-10.02,18.97-15.03,28.46,5.01-9.56,10.02-19.05,15.03-28.46Z"/>
  <path class="cls-8" d="M219.02,181.15c0,7.58-6.15,13.73-13.73,13.73-5.55,0-10.33-3.29-12.49-8.04-.8-1.74-1.24-3.67-1.24-5.7,0-3.21,1.1-6.15,2.96-8.5h.02v-.03c2.52-3.18,6.4-5.21,10.75-5.21,1.11,0,2.21.13,3.24.39,6.02,1.46,10.49,6.87,10.49,13.34Z"/>
  <path class="cls-2" d="M84.28,233.71l-8.07,17.1c-.29.39-.52.69-.69.9l8.76-18.01Z"/>
  <path class="cls-2" d="M251.42,131.5s-.11.02-.16.03t-.02-.03c.07-.02.13-.02.18,0Z"/>
  <path class="cls-6" d="M355.01,185.22c-9.17-6.79-20.98-14.32-35.22-20.59-12.55-5.55-27.01-10.12-43.2-12.39-1.88-.26-3.8-.51-5.73-.7-3.08-.31-6.12-.54-9.13-.67-3.98-.2-7.87-.21-11.7-.11-17.68.49-33.93,3.86-48.3,8.5-9,2.91-17.27,6.33-24.67,9.85-14.57,6.94-25.81,14.31-32.82,19.12-.33.23-.65.44-.98.67-.51.34-1.01.69-1.52,1.05-.43.28-.85.57-1.28.88-.47.33-.93.65-1.41,1-.49.34-.98.69-1.46,1.05-34.46,24.41-56.68,51.87-61.38,57.94l8.07-17.1s.02-.03.05-.08c1.62-2.37,42.23-61.63,106.95-88.8.28-.11.52-.21.75-.31.93-.39,1.57-.65,1.95-.79.28-.11.41-.16.41-.16,1.55-.58,2.32-.87,2.73-1.03.13-.05.3-.12.59-.23.48-.18.68-.26,1.06-.41.21-.08.38-.15.49-.2.02,0,.03-.02.05-.02,15.55-5.7,32.39-9.46,50.32-10.13.47-.02.93-.03,1.39-.05h.21s.02.02.02.03c.05-.02.11-.02.16-.03,27.47-.74,57.47,5.78,89.32,23.57l.51,1.05v.02l13.77,29.09Z"/>
</svg>